<svg xmlns="http://www.w3.org/2000/svg" fill="none" viewBox="0 0 102 108">
  <g opacity=".5">
    <path stroke="#3A4374" stroke-linecap="round" stroke-linejoin="round" stroke-width="1.05" d="M48.73 15.6a41.57 41.57 0 0 0-41.5 41.62A41.57 41.57 0 0 0 48.7 98.9a41.57 41.57 0 0 0 41.52-41.61A41.72 41.72 0 0 0 78.08 27.8a41.4 41.4 0 0 0-29.35-12.22Z"/>
    <ellipse cx="70.48" cy="43.69" fill="#231F20" rx="1.92" ry="2.86"/>
    <path fill="#3A4374" d="m0 44.9 97.43-21.64-19.17-5.61S67.88.37 65.11 0c-2.77-.36-53.13 10.42-53.13 10.42l-3.2 24.34L0 44.9Zm20.28 58.6-11-17.47 48.13-8.27 3.3 16.75 4.9-15.43 24.62 4.89-5 19.53H20.28Z"/>
    <path fill="#fff" d="m81.97 65.6 4.44-.61 2.29 16.63A2.11 2.11 0 0 1 86.9 84l-.26.04a2.11 2.11 0 0 1-2.38-1.8L81.97 65.6Z"/>
    <path fill="#3A4374" fill-rule="evenodd" d="M83.87 82.3a2.52 2.52 0 0 0 2.81 2.15l.26-.04a2.49 2.49 0 0 0 2.14-2.84L86.8 64.94a.38.38 0 0 0-.15-.26.4.4 0 0 0-.3-.08l-4.43.62a.4.4 0 0 0-.34.44l2.29 16.64Zm.79-.11-2.24-16.24 3.64-.46 2.24 16.23a1.7 1.7 0 0 1-1.45 1.93h-.27a1.7 1.7 0 0 1-1.92-1.46Z" clip-rule="evenodd"/>
    <path fill="#fff" d="m78.56 50.93 7.16-1 2.24 16.27-7.16 1-2.24-16.27Z"/>
    <path fill="#3A4374" fill-rule="evenodd" d="M80.56 67.52c.07.05.16.08.24.08h.05l7.19-1a.4.4 0 0 0 .34-.45L86.14 49.9a.4.4 0 0 0-.45-.35l-7.19 1c-.1.01-.2.07-.26.15a.4.4 0 0 0-.07.3l2.24 16.27c.01.1.07.2.15.26Zm.59-.77L79 51.27l6.4-.88 2.12 15.48-6.38.88Z" clip-rule="evenodd"/>
    <path fill="#fff" d="M82.8 81.67a3.25 3.25 0 0 1 2.77-3.66l.73-.1c1.78-.24 3.42 1 3.66 2.78l3.01 21.85a3.24 3.24 0 0 1-2.77 3.66l-.72.1c-1.78.25-3.42-1-3.67-2.77l-3-21.86Z"/>
    <path fill="#3A4374" fill-rule="evenodd" d="M85.5 104.27a2.96 2.96 0 0 0 2.93 2.56h.4l2.1-.29a2.96 2.96 0 0 0 2.52-3.33l-3.2-23.25a2.95 2.95 0 0 0-3.31-2.53l-2.11.3a2.97 2.97 0 0 0-2.52 3.33l3.2 23.21Zm1.55-26.07h.3l-.03.01c1.07 0 1.98.8 2.12 1.87l3.2 23.25a2.16 2.16 0 0 1-1.84 2.4l-2.1.3a2.17 2.17 0 0 1-2.4-1.85l-3.2-23.24c-.08-.57.07-1.15.42-1.6a2.1 2.1 0 0 1 1.42-.85l2.1-.29Z" clip-rule="evenodd"/>
    <ellipse cx="81.57" cy="46.29" fill="#fff" rx="19.19" ry="19.26"/>
    <path fill="#3A4374" fill-rule="evenodd" d="M61.98 47.18a19.63 19.63 0 0 0 22.3 18.59 19.68 19.68 0 0 0-4.5-39.08 19.65 19.65 0 0 0-17.8 20.49Zm16.98-19.59a20.4 20.4 0 0 1 2.6-.17h.02a18.9 18.9 0 0 1 9.45 35.15 18.74 18.74 0 0 1-20.85-1.24 18.91 18.91 0 0 1 8.78-33.74Z" clip-rule="evenodd"/>
    <ellipse cx="81.57" cy="46.29" fill="#fff" rx="15.59" ry="15.65"/>
    <path fill="#3A4374" fill-rule="evenodd" d="M65.6 46.86a16 16 0 0 0 18.16 15.33 16.02 16.02 0 0 0 13.69-17.54A15.99 15.99 0 0 0 80.46 30.3 16.01 16.01 0 0 0 65.6 46.86Zm13.84-15.64A15.2 15.2 0 0 1 96.7 45.8a15.2 15.2 0 0 1-14.13 15.7 15.19 15.19 0 0 1-16.12-13.64 15.22 15.22 0 0 1 13-16.65Z" clip-rule="evenodd"/>
    <path fill="#fff" d="M99.9 89.71a11.64 11.64 0 0 0-3.92-3.2c-4.57-2.4-9.82-2.33-14.64-.8-1.7.54-5.02 1.32-5.2 3.6.02.93.64 1.74 1.53 2 .88.23 1.79.26 2.68.1a6.89 6.89 0 0 0-3.62.92c-1.03.73-1.6 2.32-.75 3.3.37.4.86.68 1.4.8 1.16.32 2.4.3 3.55-.05-1.25.24-2.47.62-3.63 1.14-.7.31-1.49.87-1.4 1.6.07.74.79 1.08 1.44 1.3 1.38.48 2.82.75 4.28.8a8.4 8.4 0 0 0-3.48 1.5c-1.6 1.35-1.6 3.9.57 4.64.7.2 1.42.29 2.14.25 6.39 0 14.04-.8 18.37-6.14a9.99 9.99 0 0 0 2.04-9.07 8.7 8.7 0 0 0-1.36-2.69Z"/>
    <path fill="#3A4374" fill-rule="evenodd" d="M78.58 107.72c.72.21 1.47.3 2.22.26l.03.02c6.32 0 14.16-.73 18.7-6.28a10.36 10.36 0 0 0 2.1-9.45c-.31-1-.8-1.95-1.44-2.79a11.99 11.99 0 0 0-4.05-3.35c-4.3-2.2-9.6-2.5-14.94-.8l-.51.15-.05.02c-1.9.58-4.74 1.45-4.92 3.77 0 1.01.6 1.92 1.53 2.3a3.2 3.2 0 0 0-2.1 2.57c-.09.63.08 1.25.48 1.74a3 3 0 0 0 1.6.91c.14.05.28.08.43.1l-.57.25c-1.1.52-1.72 1.35-1.6 2.04.12.7.66 1.24 1.72 1.6.78.28 1.58.48 2.4.62a6.2 6.2 0 0 0-1.73 1 3.5 3.5 0 0 0-1.2 3.21c.2 1 .93 1.81 1.9 2.11Zm-1.12-9.88c.83-.38 1.7-.68 2.58-.91.34-.04.67-.1 1-.2a.4.4 0 0 0 .27-.48.4.4 0 0 0-.47-.3l-.96.22c-.8.1-1.62.05-2.4-.16-.46-.1-.87-.33-1.2-.66a1.44 1.44 0 0 1-.29-1.11c.1-.65.45-1.23.97-1.6a4.9 4.9 0 0 1 2.3-.76c.2 0 .38-.03.56-.05.2-.02.38-.04.57-.04a.4.4 0 0 0 .36-.43.42.42 0 0 0-.43-.37h-.07l-1.02.09c-.48.03-.97-.03-1.43-.18a1.74 1.74 0 0 1-1.26-1.6c.14-1.8 2.7-2.57 4.4-3.09l.52-.16c5.14-1.6 10.23-1.32 14.34.8a11.1 11.1 0 0 1 3.78 3.13 8.42 8.42 0 0 1 1.32 2.54c.82 3.05.08 6.3-1.98 8.7-4.31 5.3-11.92 5.99-18.08 5.99a5.73 5.73 0 0 1-2-.23c-.7-.2-1.23-.78-1.38-1.5-.14-.92.22-1.86.94-2.45a8.29 8.29 0 0 1 3.32-1.42.4.4 0 0 0-.09-.78 14.38 14.38 0 0 1-4.16-.8c-.5-.17-1.12-.38-1.18-.98-.06-.59.8-1.05 1.17-1.21Z" clip-rule="evenodd"/>
    <path fill="#fff" d="M55.37 46.6s9.72 14.66 3.84 14.87c-5.89.21-6.4-1.34-6.4-1.34"/>
    <path fill="#3A4374" d="M58.15 61.94c-4.93 0-5.64-1.36-5.74-1.6a.43.43 0 0 1 .27-.54c.21-.06.44.05.51.27 0 0 .72 1.24 6 1.05.53.05 1.03-.22 1.3-.67 1.26-2.47-3.52-10.63-5.47-13.56a.42.42 0 0 1 .13-.55.41.41 0 0 1 .56.08c.74 1.13 7.19 11.07 5.51 14.43a2.14 2.14 0 0 1-2 1.13l-1.07-.04Z"/>
    <ellipse cx="82.46" cy="45.8" fill="#C0C5DC" rx="3.53" ry="6.04"/>
    <ellipse cx="39.26" cy="45.8" fill="#3A4374" rx="2.69" ry="4.88"/>
  </g>
</svg>
