<svg xmlns="http://www.w3.org/2000/svg" fill="none" viewBox="0 0 23 24">
  <path d="M11.5 2.27a8.4 8.4 0 0 1 5.92 2.41 8.12 8.12 0 0 1 .77 10.82 8.46 8.46 0 0 1-3.65 2.71l-.31.11v.83h.37c.26 0 .47.2.47.47 0 .23-.17.42-.39.46h-.45v1.03h.37c.26 0 .47.2.47.46 0 .23-.17.43-.39.47h-.44v1.49a.47.47 0 0 1-.38.46l-.09.01H9.23a.48.48 0 0 1-.47-.38v-1.58H8.4a.47.47 0 0 1-.47-.47c0-.23.17-.42.39-.46h.44v-1.02H8.4a.47.47 0 0 1-.47-.47c0-.23.17-.43.39-.46l.08-.01h.37v-.83a8.45 8.45 0 0 1-4-2.87A8.08 8.08 0 0 1 5.63 4.7a8.4 8.4 0 0 1 5.5-2.42h.38Zm1.8 19.77H9.7v1.02h3.6v-1.02Zm-.02-1.95H9.72v1.02h3.57v-1.02ZM11.5 3.2h-.05a7.5 7.5 0 0 0-7.39 7.2 7.35 7.35 0 0 0 5.32 7.12c.18.05.3.2.34.36v1.26h3.56v-1.17c0-.2.13-.4.34-.45a7.37 7.37 0 0 0 5.32-7 7.2 7.2 0 0 0-2.19-5.18A7.45 7.45 0 0 0 11.5 3.2Zm.83 1.8c.22 0 .4.18.4.4v.32a5 5 0 0 1 1.35.56l.22-.23a.4.4 0 0 1 .57 0l1.18 1.16a.4.4 0 0 1 0 .56l-.23.23c.24.4.43.86.55 1.33h.33c.22 0 .4.18.4.4v1.64a.4.4 0 0 1-.4.4h-.33c-.12.48-.3.92-.55 1.33l.23.23a.4.4 0 0 1 0 .56l-1.18 1.16a.4.4 0 0 1-.57 0l-.22-.22c-.42.24-.87.43-1.35.55v.32a.4.4 0 0 1-.4.4h-1.66a.4.4 0 0 1-.4-.4v-.32c-.48-.12-.93-.3-1.35-.55l-.22.22a.4.4 0 0 1-.57 0l-1.18-1.16a.4.4 0 0 1 0-.56l.23-.23a4.92 4.92 0 0 1-.55-1.33H6.3a.4.4 0 0 1-.4-.4V9.72c0-.22.18-.4.4-.4h.33c.12-.47.3-.92.55-1.33l-.23-.23a.4.4 0 0 1 0-.56l1.18-1.16a.4.4 0 0 1 .57 0l.22.23a5 5 0 0 1 1.35-.56V5.4c0-.22.18-.4.4-.4h1.66Zm-.83 2.73a2.83 2.83 0 0 0-2.85 2.82 2.83 2.83 0 0 0 2.85 2.82 2.83 2.83 0 0 0 2.85-2.82 2.83 2.83 0 0 0-2.85-2.82Zm11.03 4.15c.26 0 .47.21.47.47 0 .23-.17.42-.39.46l-.08.01h-.5a.47.47 0 0 1-.48-.47c0-.23.17-.42.4-.46h.58Zm-21.56 0c.27 0 .48.21.48.47 0 .23-.17.42-.4.46l-.08.01h-.5a.47.47 0 0 1-.47-.47c0-.23.17-.42.39-.46h.58Zm2.14-8.42.08.06.46.45c.18.18.18.48 0 .66a.48.48 0 0 1-.6.06l-.07-.06-.46-.45a.46.46 0 0 1 0-.66.48.48 0 0 1 .6-.06Zm17.38.06c.16.16.18.4.05.59l-.06.07-.46.45a.48.48 0 0 1-.67 0 .46.46 0 0 1-.06-.59l.06-.07.46-.45a.48.48 0 0 1 .68 0ZM11.5 0c.23 0 .43.17.47.38v.58c0 .26-.2.47-.47.47a.47.47 0 0 1-.47-.39V.46c0-.25.2-.46.47-.46Z"/>
</svg>
